<?xml version="1.0" encoding="utf-8"?>
<!-- Generator: Adobe Illustrator 22.1.0, SVG Export Plug-In . SVG Version: 6.00 Build 0)  -->
<svg version="1.1" id="Layer_1" xmlns="http://www.w3.org/2000/svg" xmlns:xlink="http://www.w3.org/1999/xlink" x="0px" y="0px"
	 viewBox="0 0 36.2 28.3" style="enable-background:new 0 0 36.2 28.3;" xml:space="preserve">
<style type="text/css">
	.st0{fill:#FFFFFF;}
	.st1{fill:#12173A;}
</style>
<path class="st0" d="M24.6,28.3c-0.2,0-0.4,0-0.6-0.1c-1.1,0.1-2.9,0.1-5.8,0.1c-7.5,0-7.9-0.1-8.6-1l-9-11.4c-0.8-1-0.8-2.6,0-3.6
	L9.6,1c0.7-0.8,1-1,8.5-1c3,0,4.8,0,5.9,0.1c0.2,0,0.4-0.1,0.5-0.1c0.4,0,0.9,0.1,1.3,0.3c0.4,0.2,0.6,0.4,0.8,0.6L27,1.4l0,0.1
	l8.6,10.8c0.8,1,0.8,2.6,0,3.6l-8.4,10.6l-0.1,0.3l-0.4,0.4c-0.2,0.2-0.5,0.5-1,0.7C25.4,28.2,25,28.3,24.6,28.3z"/>
<path class="st1" d="M23.6,24.8l0.1,0.3c-2.9,0.1-10.3,0.1-11.9,0L3.1,14.2l8.6-10.8c1.6-0.1,8.8-0.2,11.7-0.1c0,0,0.1,0,0.1,0
	l-0.1,0.4c0.7,0,1.4,0,2.1,0l0.5-1.5l-0.3-0.4c-0.3-0.4-0.5-0.6-7.7-0.6c-7.2,0-7.3,0.2-7.7,0.6L1.5,13.1c-0.5,0.7-0.5,1.6,0,2.3
	l8.9,11.2c0.3,0.4,0.5,0.6,7.7,0.6c7.2,0,7.4-0.2,7.7-0.6l0.4-0.4l-0.5-1.3C25,24.8,24.2,24.8,23.6,24.8z M12,25.3L12,25.3L12,25.3z
	"/>
<rect x="2.5" y="13.1" class="st1" width="12.8" height="2.3"/>
<path class="st1" d="M24.7,27.1c-0.5,0-0.9-0.2-1.2-0.6l-8.9-11.2c-0.5-0.7-0.5-1.6,0-2.3l8.9-11.2c0.6-0.8,1.8-0.8,2.4,0l8.9,11.2
	c0.5,0.7,0.5,1.6,0,2.3l-8.9,11.2C25.6,26.9,25.2,27.1,24.7,27.1 M25.1,25.3L25.1,25.3L25.1,25.3z M16.2,14.2l8.5,10.6l8.5-10.6
	L24.7,3.6L16.2,14.2z"/>
</svg>
