<svg id="Layer_1" data-name="Layer 1" xmlns="http://www.w3.org/2000/svg" viewBox="0 0 760.53 220"><defs><style>.cls-1{fill:#e0dacd;}</style></defs><title>OAN Logo Vector</title><path class="cls-1" d="M357.51,472.66A109.23,109.23,0,0,0,273,432.72H163.49V542.18l-.09,109.65L273,513,382.51,651.83l-.09-109.65A109,109,0,0,0,357.51,472.66Z" transform="translate(-163.4 -432.72)"/><circle class="cls-1" cx="109.56" cy="191.71" r="28.29"/><polygon class="cls-1" points="328.8 16.71 328.8 65.93 341.73 65.93 341.73 16.71 359.14 16.71 359.14 5.59 311.39 5.59 311.39 16.71 328.8 16.71"/><path class="cls-1" d="M540,475.89c0-3.79.87-6.75,2.63-8.88a8.91,8.91,0,0,1,7.28-3.19q4.49,0,6.73,2.89c1.49,1.92,2.24,4.73,2.24,8.4v23.54H571v-24q0-11.13-5-16a17.87,17.87,0,0,0-12.89-4.83,16.12,16.12,0,0,0-13.1,5.95V438.31H527.85v60.34H540Z" transform="translate(-163.4 -432.72)"/><path class="cls-1" d="M587.33,496.41a27.75,27.75,0,0,0,12.8,2.75,23.89,23.89,0,0,0,10.09-2,18.36,18.36,0,0,0,7.07-5.56,17.47,17.47,0,0,0,3.36-7.93h-12a7.57,7.57,0,0,1-3.24,4.7,11.12,11.12,0,0,1-6.16,1.59,9.73,9.73,0,0,1-7.33-2.76,12.07,12.07,0,0,1-3.1-7.58v-.35H621a22.22,22.22,0,0,0,.35-4.14,21.92,21.92,0,0,0-3-11.25,19.57,19.57,0,0,0-8-7.41,25.68,25.68,0,0,0-11.86-2.63,23.74,23.74,0,0,0-11.68,2.8,19.69,19.69,0,0,0-7.84,7.93,24.69,24.69,0,0,0-2.8,12,24,24,0,0,0,2.88,11.94A19.48,19.48,0,0,0,587.33,496.41Zm5-31.25a10,10,0,0,1,6.68-2.29,10.56,10.56,0,0,1,6.85,2.2,9.49,9.49,0,0,1,3.32,6.25H589.1A9.3,9.3,0,0,1,592.33,465.16Z" transform="translate(-163.4 -432.72)"/><path class="cls-1" d="M663.09,495.2a32.39,32.39,0,0,0,31,0,27.68,27.68,0,0,0,10.6-11,34.56,34.56,0,0,0,0-31.47,27.75,27.75,0,0,0-10.6-11,32.39,32.39,0,0,0-31,0,27.75,27.75,0,0,0-10.6,11,34.56,34.56,0,0,0,0,31.47A27.68,27.68,0,0,0,663.09,495.2Zm.87-36.9a16.55,16.55,0,0,1,5.86-7,16.34,16.34,0,0,1,17.5,0,16.69,16.69,0,0,1,5.86,7,26,26,0,0,1,0,20.35,16.63,16.63,0,0,1-5.86,7,16.29,16.29,0,0,1-17.5,0,16.49,16.49,0,0,1-5.86-7,26,26,0,0,1,0-20.35Z" transform="translate(-163.4 -432.72)"/><path class="cls-1" d="M726.94,493q4.83,6.12,13.36,6.12a20.17,20.17,0,0,0,10.61-2.8,19.31,19.31,0,0,0,7.28-7.89,25.57,25.57,0,0,0,2.63-11.89,26.1,26.1,0,0,0-2.63-12,19.42,19.42,0,0,0-7.24-8,20,20,0,0,0-10.56-2.8,17.22,17.22,0,0,0-8.06,1.81,16.45,16.45,0,0,0-5.73,4.83l-1.21-6.12h-10.6v61.55h12.15Zm2.76-25.81a9.71,9.71,0,0,1,7.84-3.5,10,10,0,0,1,7.93,3.5,13.48,13.48,0,0,1,3,9.18,13.82,13.82,0,0,1-3,9.26,9.85,9.85,0,0,1-7.93,3.58,9.68,9.68,0,0,1-7.84-3.53,14.14,14.14,0,0,1-2.93-9.31A13.79,13.79,0,0,1,729.7,467.23Z" transform="translate(-163.4 -432.72)"/><path class="cls-1" d="M776.43,496.41a27.75,27.75,0,0,0,12.8,2.75,23.85,23.85,0,0,0,10.09-2,18.36,18.36,0,0,0,7.07-5.56,17.47,17.47,0,0,0,3.36-7.93h-12a7.57,7.57,0,0,1-3.24,4.7,11.12,11.12,0,0,1-6.16,1.59,9.73,9.73,0,0,1-7.33-2.76,12.07,12.07,0,0,1-3.1-7.58v-.35h32.15a22.22,22.22,0,0,0,.35-4.14,21.92,21.92,0,0,0-3-11.25,19.51,19.51,0,0,0-8-7.41,25.68,25.68,0,0,0-11.86-2.63,23.74,23.74,0,0,0-11.68,2.8,19.69,19.69,0,0,0-7.84,7.93,24.69,24.69,0,0,0-2.8,12,23.88,23.88,0,0,0,2.89,11.94A19.4,19.4,0,0,0,776.43,496.41Zm5-31.25a10,10,0,0,1,6.68-2.29,10.56,10.56,0,0,1,6.85,2.2,9.49,9.49,0,0,1,3.32,6.25H778.2A9.3,9.3,0,0,1,781.43,465.16Z" transform="translate(-163.4 -432.72)"/><path class="cls-1" d="M837.53,463.82q9,0,9,11.47v23.36h12.15v-24q0-11.13-5-16a17.61,17.61,0,0,0-12.76-4.83,18.3,18.3,0,0,0-8.1,1.6,16.42,16.42,0,0,0-5.6,4.44l-1.12-5.52H815.46v44.31h12.16V476q0-5.78,2.58-9A8.9,8.9,0,0,1,837.53,463.82Z" transform="translate(-163.4 -432.72)"/><path class="cls-1" d="M495.43,514.2l-22.07,60.34h13.37l4.65-13.19h22.93L519,574.54h13.88L511,514.2Zm-.6,36.72L502.76,528l8,22.93Z" transform="translate(-163.4 -432.72)"/><path class="cls-1" d="M580.69,540.49a19.37,19.37,0,0,0-7.25-8,20,20,0,0,0-10.56-2.8,17.37,17.37,0,0,0-8.06,1.81,16.63,16.63,0,0,0-5.73,4.83l-1.2-6.12H537.28v61.55h12.16V568.94q4.83,6.12,13.36,6.12a20.14,20.14,0,0,0,10.6-2.81,19.3,19.3,0,0,0,7.29-7.88,25.61,25.61,0,0,0,2.62-11.9A26.13,26.13,0,0,0,580.69,540.49ZM568,561.56a9.85,9.85,0,0,1-7.93,3.58,9.64,9.64,0,0,1-7.84-3.53,14.09,14.09,0,0,1-2.94-9.31,13.78,13.78,0,0,1,2.94-9.18,9.69,9.69,0,0,1,7.84-3.49,10,10,0,0,1,7.93,3.49,13.56,13.56,0,0,1,3,9.18A13.87,13.87,0,0,1,568,561.56Z" transform="translate(-163.4 -432.72)"/><path class="cls-1" d="M631.83,564.37a25.61,25.61,0,0,0,2.63-11.9,26.13,26.13,0,0,0-2.63-12,19.35,19.35,0,0,0-7.24-8,20,20,0,0,0-10.56-2.8,17.34,17.34,0,0,0-8.06,1.81,16.45,16.45,0,0,0-5.73,4.83L599,530.23h-10.6v61.55h12.15V568.94q4.83,6.12,13.36,6.12a20.17,20.17,0,0,0,10.61-2.81A19.28,19.28,0,0,0,631.83,564.37Zm-12.71-2.81a9.87,9.87,0,0,1-7.93,3.58,9.66,9.66,0,0,1-7.85-3.53,14.14,14.14,0,0,1-2.93-9.31,13.83,13.83,0,0,1,2.93-9.18,9.71,9.71,0,0,1,7.85-3.49,10,10,0,0,1,7.93,3.49,13.56,13.56,0,0,1,3,9.18A13.86,13.86,0,0,1,619.12,561.56Z" transform="translate(-163.4 -432.72)"/><rect class="cls-1" x="477.78" y="81.48" width="12.15" height="60.34"/><rect class="cls-1" x="498.39" y="97.52" width="12.15" height="44.31"/><path class="cls-1" d="M672.91,513.72a6.89,6.89,0,0,0-5-1.94,7,7,0,0,0-5,1.94,6.47,6.47,0,0,0-2,4.87,6.6,6.6,0,0,0,2,4.92,6.93,6.93,0,0,0,5,2,6.8,6.8,0,0,0,5-2,6.68,6.68,0,0,0,2-4.92A6.55,6.55,0,0,0,672.91,513.72Z" transform="translate(-163.4 -432.72)"/><path class="cls-1" d="M703.51,539.63a8.66,8.66,0,0,1,5.77,1.94,9.4,9.4,0,0,1,3.11,5.21H725a19.41,19.41,0,0,0-6.9-12.54q-5.6-4.53-14.48-4.53a25.32,25.32,0,0,0-12.11,2.8,19.48,19.48,0,0,0-8,7.94,26.75,26.75,0,0,0,0,23.83,19.34,19.34,0,0,0,8,8,24.94,24.94,0,0,0,12.07,2.81q9,0,14.61-4.62A19.4,19.4,0,0,0,725,557.73h-12.5a9.15,9.15,0,0,1-3.06,5.43,8.9,8.9,0,0,1-5.9,2,9.24,9.24,0,0,1-7.59-3.53,16.4,16.4,0,0,1,0-18.45A9.27,9.27,0,0,1,703.51,539.63Z" transform="translate(-163.4 -432.72)"/><path class="cls-1" d="M774.67,564.28h-1.38a3.24,3.24,0,0,1-2.16-.6,2.9,2.9,0,0,1-.69-2.24V545.83q0-7.85-5.13-12t-14.52-4.14q-9,0-14.4,3.75a13.66,13.66,0,0,0-6,10.56h11.72a5.84,5.84,0,0,1,2.59-4,11.13,11.13,0,0,1,11.55.3,5.78,5.78,0,0,1,2.24,4.78v2.16h-8.79q-9.92,0-15.13,3.83T729.32,562a11.32,11.32,0,0,0,4.53,9.61q4.51,3.4,11.94,3.41a17.11,17.11,0,0,0,8.53-2,16.71,16.71,0,0,0,5.95-5.77q-.18,7.23,8.19,7.24h6.21Zm-16.21-8a10.06,10.06,0,0,1-2.85,7.29,10.21,10.21,0,0,1-7.5,2.71,7.57,7.57,0,0,1-4.78-1.38,4.43,4.43,0,0,1-1.77-3.7,5,5,0,0,1,2.12-4.27,10,10,0,0,1,5.9-1.51h8.88Z" transform="translate(-163.4 -432.72)"/><path class="cls-1" d="M794.92,574.54H805V564.28h-6.3a4.43,4.43,0,0,1-3.31-1,4.76,4.76,0,0,1-1-3.37V540.49h10.09V530.23H794.4V517.82H782.25v12.41h-7.33v10.26h7.33v21.38Q782.25,574.53,794.92,574.54Z" transform="translate(-163.4 -432.72)"/><path class="cls-1" d="M816.74,511.78a7,7,0,0,0-5,1.94,6.47,6.47,0,0,0-2,4.87,6.6,6.6,0,0,0,2,4.92,6.93,6.93,0,0,0,5,2,6.8,6.8,0,0,0,5-2,6.68,6.68,0,0,0,2-4.92,6.55,6.55,0,0,0-2-4.87A6.89,6.89,0,0,0,816.74,511.78Z" transform="translate(-163.4 -432.72)"/><rect class="cls-1" x="647.22" y="97.52" width="12.15" height="44.31"/><path class="cls-1" d="M864.06,532.51a28.33,28.33,0,0,0-24.56,0,19.69,19.69,0,0,0-8.19,8,25.92,25.92,0,0,0,0,23.79,19.61,19.61,0,0,0,8.19,8,28.24,28.24,0,0,0,24.56,0,19.69,19.69,0,0,0,8.19-7.93,26,26,0,0,0,0-23.83A19.69,19.69,0,0,0,864.06,532.51Zm-4.22,29.1a10,10,0,0,1-8.06,3.53,9.87,9.87,0,0,1-8-3.53,15.77,15.77,0,0,1,0-18.45,9.9,9.9,0,0,1,8-3.53,10,10,0,0,1,8.06,3.53,15.81,15.81,0,0,1,0,18.45Z" transform="translate(-163.4 -432.72)"/><path class="cls-1" d="M918.93,534.54a17.59,17.59,0,0,0-12.75-4.83,18.52,18.52,0,0,0-8.11,1.6,16.42,16.42,0,0,0-5.6,4.44l-1.12-5.52h-10.6v44.31H892.9V551.87q0-5.77,2.59-9a8.9,8.9,0,0,1,7.32-3.19q9,0,9,11.47v23.36h12.15v-24Q923.93,539.36,918.93,534.54Z" transform="translate(-163.4 -432.72)"/><polygon class="cls-1" points="351.99 196.78 326.38 158.76 314.66 158.76 314.66 219.1 327.33 219.1 327.33 181.09 352.94 219.1 364.75 219.1 364.75 158.76 351.99 158.76 351.99 196.78"/><path class="cls-1" d="M567.78,609.62A25.68,25.68,0,0,0,555.92,607a23.77,23.77,0,0,0-11.68,2.8,19.75,19.75,0,0,0-7.84,7.93,24.69,24.69,0,0,0-2.8,12,23.88,23.88,0,0,0,2.89,11.94,19.4,19.4,0,0,0,8.27,7.89,27.75,27.75,0,0,0,12.8,2.75,23.85,23.85,0,0,0,10.09-2,18.19,18.19,0,0,0,7.07-5.56,17.47,17.47,0,0,0,3.36-7.93h-12a7.57,7.57,0,0,1-3.24,4.7,11.1,11.1,0,0,1-6.16,1.59,9.75,9.75,0,0,1-7.33-2.76,12.07,12.07,0,0,1-3.1-7.58v-.35h32.15a22.22,22.22,0,0,0,.35-4.14,21.92,21.92,0,0,0-3-11.25A19.58,19.58,0,0,0,567.78,609.62Zm-21.25,14.87a9.32,9.32,0,0,1,3.23-6.16,10,10,0,0,1,6.68-2.29,10.59,10.59,0,0,1,6.86,2.2,9.48,9.48,0,0,1,3.31,6.25Z" transform="translate(-163.4 -432.72)"/><path class="cls-1" d="M601.57,640.52a4.75,4.75,0,0,1-1-3.36V617.77h10.09V607.51H600.58V595.1H588.43v12.41H581.1v10.26h7.33v21.38q0,12.66,12.67,12.67h10.08V641.56h-6.29A4.46,4.46,0,0,1,601.57,640.52Z" transform="translate(-163.4 -432.72)"/><polygon class="cls-1" points="509.21 174.79 500.17 206.09 492.06 174.79 481.11 174.79 472.75 206 463.87 174.79 451.03 174.79 465.51 219.1 478.44 219.1 486.37 192.38 494.13 219.1 507.06 219.1 521.63 174.79 509.21 174.79"/><path class="cls-1" d="M720.67,609.79a28.33,28.33,0,0,0-24.56,0,19.69,19.69,0,0,0-8.19,8,25.92,25.92,0,0,0,0,23.79,19.61,19.61,0,0,0,8.19,8,28.33,28.33,0,0,0,24.56,0,19.69,19.69,0,0,0,8.19-7.93,26,26,0,0,0,0-23.83A19.69,19.69,0,0,0,720.67,609.79Zm-4.22,29.1a10.88,10.88,0,0,1-16,0,15.81,15.81,0,0,1,0-18.45,10.88,10.88,0,0,1,16,0,15.81,15.81,0,0,1,0,18.45Z" transform="translate(-163.4 -432.72)"/><path class="cls-1" d="M754.53,609.19a13.73,13.73,0,0,0-4.91,5l-1.12-6.64h-11v44.31h12.15V630.09q0-5.34,2.42-8.44t7.58-3.11h4.83v-11h-2.07A15.77,15.77,0,0,0,754.53,609.19Z" transform="translate(-163.4 -432.72)"/><polygon class="cls-1" points="649.67 174.79 636.05 174.79 618.63 193.67 618.63 158.76 606.48 158.76 606.48 219.1 618.63 219.1 618.63 208.33 625.27 201.17 636.48 219.1 650.53 219.1 633.89 192.12 649.67 174.79"/></svg>